<?xml version="1.0" encoding="utf-8"?>
<!-- Generator: Adobe Illustrator 25.2.1, SVG Export Plug-In . SVG Version: 6.00 Build 0)  -->
<svg version="1.1" id="Layer_1" xmlns="http://www.w3.org/2000/svg" xmlns:xlink="http://www.w3.org/1999/xlink" x="0px" y="0px"
	 viewBox="0 0 80 80" style="enable-background:new 0 0 80 80;" xml:space="preserve">
<style type="text/css">
	.st0{fill:#FFFFFF;}
</style>
<g id="Layer_2_1_">
	<g id="Layer_1-2">
		<path class="st0" d="M40.1,80C18,80,0,62.2,0,40.1S17.8,0,39.9,0S80,17.8,80,39.9c0,0.1,0,0.1,0,0.2C80,62.1,62.1,80,40.1,80z
			 M40.1,2.6C19.4,2.6,2.7,19.3,2.6,40S19.3,77.4,40,77.5s37.4-16.7,37.5-37.4c0,0,0,0,0,0C77.4,19.4,60.7,2.7,40.1,2.6z"/>
		<path class="st0" d="M40.5,66.1c-1.2,0-2.3-0.2-3.4-0.4c-2.7-0.7-4.9-2.5-6.1-5L15.9,27.2c-0.5-1.2-0.5-2.6,0-3.8
			c0.5-1.2,1.6-2.2,2.8-2.6c3.1-1,6.4-1.1,9.6-0.3c2.4,0.7,4.4,2.5,5.4,4.8c2.5,5.8,6.6,16.4,9.6,24.1l2.1,5.4
			c0.4,1,1.5,1.5,2.5,1.1c0.5-0.2,0.9-0.5,1.1-1l12.9-28.6c0.3-0.6,0.3-1.4,0.1-2c-0.4-0.7-1.1-1.2-2-1.3c-2-0.4-4.1-0.5-6.1-0.3
			c-2.2,0.2-4.1,1.6-5,3.6l-5,12.7l-2.4-0.9l5-12.7c1.2-2.9,3.9-4.9,7.1-5.2c2.3-0.3,4.6-0.1,6.9,0.4c1.6,0.3,2.9,1.3,3.7,2.7
			c0.6,1.3,0.6,2.9,0,4.2L51.2,56c-1,2.3-3.7,3.3-5.9,2.2c-1.1-0.5-1.9-1.4-2.3-2.4c-0.6-1.5-1.3-3.4-2.1-5.4
			c-3-7.7-7.1-18.3-9.6-24.1c-0.7-1.6-2-2.8-3.7-3.3c-2.7-0.7-5.5-0.6-8.1,0.2c-0.6,0.2-1.1,0.6-1.3,1.2c-0.2,0.5-0.2,1.2,0,1.7
			l15.2,33.4c0.8,1.8,2.4,3.1,4.3,3.6c1.7,0.4,3.6,0.5,5.3,0.1c1.1-0.2,2.2-0.8,2.9-1.7c0.4-0.6,1.2-0.8,1.8-0.4
			c0.6,0.4,0.8,1.2,0.4,1.8c-1.1,1.5-2.7,2.5-4.5,2.8C42.5,66,41.5,66.1,40.5,66.1z"/>
	</g>
</g>
</svg>
